<mxfile host="app.diagrams.net" modified="2024-09-02T16:54:06.636Z" agent="Mozilla/5.0 (Macintosh; Intel Mac OS X 10_15_7) AppleWebKit/537.36 (KHTML, like Gecko) Chrome/128.0.0.0 Safari/537.36" version="24.4.13" etag="F7POVWRIblIobcruJFV-" type="google">
  <diagram id="ZzDqadx2_SIlBwQup-JX" name="Page-1">
    <mxGraphModel grid="1" page="1" gridSize="10" guides="1" tooltips="1" connect="1" arrows="1" fold="1" pageScale="1" pageWidth="850" pageHeight="1100" math="0" shadow="0">
      <root>
        <mxCell id="0" />
        <mxCell id="1" parent="0" />
        <mxCell id="6gBF9ABzdq29Ft6zYh_U-1" value="Probabilities" style="edgeStyle=none;html=1;noEdgeStyle=1;orthogonal=1;dashed=1;dashPattern=1 1;fontSize=13;entryX=0.003;entryY=0.112;entryDx=0;entryDy=0;entryPerimeter=0;exitX=1;exitY=0.25;exitDx=0;exitDy=0;" parent="1" source="A6PBOMyZKVrQ29ENLVK5-2" target="6gBF9ABzdq29Ft6zYh_U-27" edge="1">
          <mxGeometry x="0.216" relative="1" as="geometry">
            <mxPoint x="633" y="202.0769230769231" as="targetPoint" />
            <Array as="points">
              <mxPoint x="390" y="60" />
              <mxPoint x="448" y="202.07692307692307" />
            </Array>
            <mxPoint x="360" y="16.5" as="sourcePoint" />
            <mxPoint as="offset" />
          </mxGeometry>
        </mxCell>
        <mxCell id="6gBF9ABzdq29Ft6zYh_U-2" value="Predictions" style="edgeStyle=none;html=1;noEdgeStyle=1;orthogonal=1;fontSize=13;entryX=-0.001;entryY=0.18;entryDx=0;entryDy=0;entryPerimeter=0;exitX=0.986;exitY=0.612;exitDx=0;exitDy=0;exitPerimeter=0;" parent="1" source="A6PBOMyZKVrQ29ENLVK5-2" target="6gBF9ABzdq29Ft6zYh_U-27" edge="1">
          <mxGeometry x="0.2092" relative="1" as="geometry">
            <mxPoint x="633" y="219.23076923076928" as="targetPoint" />
            <Array as="points">
              <mxPoint x="380" y="77" />
              <mxPoint x="448" y="219.23076923076923" />
            </Array>
            <mxPoint x="360" y="42.5" as="sourcePoint" />
            <mxPoint as="offset" />
          </mxGeometry>
        </mxCell>
        <mxCell id="6gBF9ABzdq29Ft6zYh_U-9" style="edgeStyle=none;html=1;noEdgeStyle=1;orthogonal=1;exitX=1.004;exitY=0.245;exitDx=0;exitDy=0;exitPerimeter=0;entryX=0;entryY=0.5;entryDx=0;entryDy=0;" parent="1" source="A6PBOMyZKVrQ29ENLVK5-1" target="A6PBOMyZKVrQ29ENLVK5-2" edge="1">
          <mxGeometry relative="1" as="geometry">
            <Array as="points">
              <mxPoint x="152" y="278.57142857142856" />
              <mxPoint x="210" y="70" />
            </Array>
            <mxPoint x="140" y="279" as="sourcePoint" />
            <mxPoint x="240" y="30" as="targetPoint" />
          </mxGeometry>
        </mxCell>
        <mxCell id="6gBF9ABzdq29Ft6zYh_U-11" style="edgeStyle=none;html=1;noEdgeStyle=1;orthogonal=1;exitX=0.998;exitY=0.327;exitDx=0;exitDy=0;exitPerimeter=0;entryX=0;entryY=0.5;entryDx=0;entryDy=0;" parent="1" source="A6PBOMyZKVrQ29ENLVK5-1" target="A6PBOMyZKVrQ29ENLVK5-3" edge="1">
          <mxGeometry relative="1" as="geometry">
            <Array as="points">
              <mxPoint x="154" y="285.7142857142857" />
              <mxPoint x="210" y="147" />
            </Array>
            <mxPoint x="140" y="286" as="sourcePoint" />
            <mxPoint x="240" y="120" as="targetPoint" />
          </mxGeometry>
        </mxCell>
        <mxCell id="6gBF9ABzdq29Ft6zYh_U-12" style="edgeStyle=none;html=1;noEdgeStyle=1;orthogonal=1;exitX=0.995;exitY=0.675;exitDx=0;exitDy=0;exitPerimeter=0;entryX=0;entryY=0.5;entryDx=0;entryDy=0;" parent="1" source="A6PBOMyZKVrQ29ENLVK5-1" target="A6PBOMyZKVrQ29ENLVK5-7" edge="1">
          <mxGeometry relative="1" as="geometry">
            <mxPoint x="240" y="480" as="targetPoint" />
            <Array as="points">
              <mxPoint x="154" y="314.2857142857144" />
              <mxPoint x="220" y="454" />
            </Array>
            <mxPoint x="140" y="314" as="sourcePoint" />
          </mxGeometry>
        </mxCell>
        <mxCell id="6gBF9ABzdq29Ft6zYh_U-14" style="edgeStyle=none;html=1;noEdgeStyle=1;orthogonal=1;" parent="1" edge="1">
          <mxGeometry relative="1" as="geometry">
            <Array as="points">
              <mxPoint x="158" y="300.00000000000006" />
              <mxPoint x="228" y="300" />
            </Array>
            <mxPoint x="140" y="300" as="sourcePoint" />
            <mxPoint x="240" y="300" as="targetPoint" />
          </mxGeometry>
        </mxCell>
        <mxCell id="6gBF9ABzdq29Ft6zYh_U-17" value="Predictions" style="edgeStyle=none;html=1;noEdgeStyle=1;orthogonal=1;fontSize=13;entryX=-0.005;entryY=0.314;entryDx=0;entryDy=0;entryPerimeter=0;exitX=0.992;exitY=0.674;exitDx=0;exitDy=0;exitPerimeter=0;" parent="1" source="A6PBOMyZKVrQ29ENLVK5-3" target="6gBF9ABzdq29Ft6zYh_U-27" edge="1">
          <mxGeometry x="0.115" y="-1" relative="1" as="geometry">
            <mxPoint x="633" y="251.53846153846155" as="targetPoint" />
            <mxPoint x="360" y="132.5" as="sourcePoint" />
            <Array as="points">
              <mxPoint x="380" y="160" />
              <mxPoint x="446" y="251.53846153846155" />
            </Array>
            <mxPoint as="offset" />
          </mxGeometry>
        </mxCell>
        <mxCell id="6gBF9ABzdq29Ft6zYh_U-18" value="Predictions" style="edgeStyle=none;html=1;noEdgeStyle=1;orthogonal=1;fontSize=14;exitX=1;exitY=0.75;exitDx=0;exitDy=0;" parent="1" source="A6PBOMyZKVrQ29ENLVK5-4" target="6gBF9ABzdq29Ft6zYh_U-27" edge="1">
          <mxGeometry x="0.0324" relative="1" as="geometry">
            <mxPoint x="660" y="235" as="targetPoint" />
            <mxPoint x="360" y="222.5" as="sourcePoint" />
            <Array as="points">
              <mxPoint x="390" y="239" />
              <mxPoint x="444" y="283.8461538461538" />
            </Array>
            <mxPoint as="offset" />
          </mxGeometry>
        </mxCell>
        <mxCell id="6gBF9ABzdq29Ft6zYh_U-19" value="Predictions" style="edgeStyle=none;html=1;noEdgeStyle=1;orthogonal=1;fontSize=13;" parent="1" target="6gBF9ABzdq29Ft6zYh_U-27" edge="1">
          <mxGeometry x="-0.0473" relative="1" as="geometry">
            <mxPoint x="660" y="235" as="targetPoint" />
            <mxPoint x="360" y="312.5" as="sourcePoint" />
            <Array as="points">
              <mxPoint x="372" y="312.5" />
              <mxPoint x="442" y="316.1538461538461" />
            </Array>
            <mxPoint as="offset" />
          </mxGeometry>
        </mxCell>
        <mxCell id="6gBF9ABzdq29Ft6zYh_U-20" value="Probabilities" style="edgeStyle=none;html=1;noEdgeStyle=1;orthogonal=1;dashed=1;dashPattern=1 1;fontSize=13;exitX=1;exitY=0.25;exitDx=0;exitDy=0;" parent="1" source="A6PBOMyZKVrQ29ENLVK5-3" target="6gBF9ABzdq29Ft6zYh_U-27" edge="1">
          <mxGeometry x="0.1211" relative="1" as="geometry">
            <mxPoint x="700" y="110" as="targetPoint" />
            <mxPoint x="360" y="107.5" as="sourcePoint" />
            <Array as="points">
              <mxPoint x="380" y="140" />
              <mxPoint x="446" y="235.3846153846154" />
            </Array>
            <mxPoint as="offset" />
          </mxGeometry>
        </mxCell>
        <mxCell id="6gBF9ABzdq29Ft6zYh_U-21" value="Probabilities" style="edgeStyle=none;html=1;noEdgeStyle=1;orthogonal=1;dashed=1;dashPattern=1 1;fontSize=13;exitX=1.004;exitY=0.367;exitDx=0;exitDy=0;exitPerimeter=0;" parent="1" source="A6PBOMyZKVrQ29ENLVK5-4" target="6gBF9ABzdq29Ft6zYh_U-27" edge="1">
          <mxGeometry x="0.03" relative="1" as="geometry">
            <mxPoint x="660" y="235" as="targetPoint" />
            <mxPoint x="360" y="197.5" as="sourcePoint" />
            <Array as="points">
              <mxPoint x="380" y="216" />
              <mxPoint x="444" y="267.6923076923077" />
            </Array>
            <mxPoint as="offset" />
          </mxGeometry>
        </mxCell>
        <mxCell id="6gBF9ABzdq29Ft6zYh_U-22" value="Probabilities" style="edgeStyle=none;html=1;noEdgeStyle=1;orthogonal=1;dashed=1;dashPattern=1 1;fontSize=13;exitX=0.998;exitY=0.398;exitDx=0;exitDy=0;exitPerimeter=0;" parent="1" source="A6PBOMyZKVrQ29ENLVK5-5" target="6gBF9ABzdq29Ft6zYh_U-27" edge="1">
          <mxGeometry x="-0.0434" relative="1" as="geometry">
            <mxPoint x="660" y="235" as="targetPoint" />
            <mxPoint x="360" y="287.5" as="sourcePoint" />
            <Array as="points">
              <mxPoint x="442" y="299.99999999999994" />
            </Array>
            <mxPoint as="offset" />
          </mxGeometry>
        </mxCell>
        <mxCell id="6gBF9ABzdq29Ft6zYh_U-23" value="Predictions" style="edgeStyle=none;html=1;noEdgeStyle=1;orthogonal=1;fontSize=13;exitX=1;exitY=0.75;exitDx=0;exitDy=0;" parent="1" source="A6PBOMyZKVrQ29ENLVK5-6" target="6gBF9ABzdq29Ft6zYh_U-27" edge="1">
          <mxGeometry relative="1" as="geometry">
            <mxPoint x="680" y="350" as="targetPoint" />
            <mxPoint x="360" y="402.5" as="sourcePoint" />
            <Array as="points">
              <mxPoint x="380" y="392" />
              <mxPoint x="440" y="348.46153846153834" />
            </Array>
          </mxGeometry>
        </mxCell>
        <mxCell id="6gBF9ABzdq29Ft6zYh_U-24" value="Probabilities" style="edgeStyle=none;html=1;noEdgeStyle=1;orthogonal=1;dashed=1;dashPattern=1 1;fontSize=13;exitX=1.001;exitY=0.372;exitDx=0;exitDy=0;exitPerimeter=0;" parent="1" source="A6PBOMyZKVrQ29ENLVK5-6" target="6gBF9ABzdq29Ft6zYh_U-27" edge="1">
          <mxGeometry relative="1" as="geometry">
            <mxPoint x="660" y="235" as="targetPoint" />
            <mxPoint x="360" y="377.5" as="sourcePoint" />
            <Array as="points">
              <mxPoint x="372" y="370" />
              <mxPoint x="440" y="332.3076923076922" />
            </Array>
          </mxGeometry>
        </mxCell>
        <mxCell id="6gBF9ABzdq29Ft6zYh_U-25" value="Predictions" style="edgeStyle=none;html=1;noEdgeStyle=1;orthogonal=1;fontSize=13;" parent="1" target="6gBF9ABzdq29Ft6zYh_U-27" edge="1">
          <mxGeometry x="0.1109" relative="1" as="geometry">
            <mxPoint x="660" y="195" as="targetPoint" />
            <mxPoint x="361" y="470" as="sourcePoint" />
            <Array as="points">
              <mxPoint x="380" y="470" />
              <mxPoint x="438" y="380.7692307692306" />
            </Array>
            <mxPoint as="offset" />
          </mxGeometry>
        </mxCell>
        <mxCell id="6gBF9ABzdq29Ft6zYh_U-26" value="Probabilities" style="edgeStyle=none;html=1;noEdgeStyle=1;orthogonal=1;dashed=1;dashPattern=1 1;fontSize=13;exitX=0.998;exitY=0.402;exitDx=0;exitDy=0;exitPerimeter=0;" parent="1" source="A6PBOMyZKVrQ29ENLVK5-7" target="6gBF9ABzdq29Ft6zYh_U-27" edge="1">
          <mxGeometry x="0.1062" relative="1" as="geometry">
            <mxPoint x="700" y="210" as="targetPoint" />
            <mxPoint x="360" y="467.5" as="sourcePoint" />
            <Array as="points">
              <mxPoint x="380" y="450" />
              <mxPoint x="438" y="364.61538461538447" />
            </Array>
            <mxPoint as="offset" />
          </mxGeometry>
        </mxCell>
        <mxCell id="6gBF9ABzdq29Ft6zYh_U-27" value="Dataset for ensemble model" style="shape=datastore;whiteSpace=wrap;html=1;fillColor=#bac8d3;strokeColor=#23445d;fontSize=19;" parent="1" vertex="1">
          <mxGeometry x="668" y="174" width="170" height="250" as="geometry" />
        </mxCell>
        <mxCell id="A6PBOMyZKVrQ29ENLVK5-1" value="&lt;font style=&quot;font-size: 17px;&quot;&gt;Validation Dataset&lt;/font&gt;" style="shape=datastore;whiteSpace=wrap;html=1;fillColor=#eeeeee;strokeColor=#36393d;fontSize=17;" parent="1" vertex="1">
          <mxGeometry x="20" y="260" width="89" height="80" as="geometry" />
        </mxCell>
        <mxCell id="A6PBOMyZKVrQ29ENLVK5-2" value="BERT Base" style="rounded=1;whiteSpace=wrap;html=1;fontSize=19;fillColor=#fad7ac;strokeColor=#b46504;strokeWidth=2;" parent="1" vertex="1">
          <mxGeometry x="240" y="40" width="120" height="60" as="geometry" />
        </mxCell>
        <mxCell id="A6PBOMyZKVrQ29ENLVK5-3" value="BERT Large" style="rounded=1;whiteSpace=wrap;html=1;fontSize=19;fillColor=#fad7ac;strokeColor=#b46504;strokeWidth=3;" parent="1" vertex="1">
          <mxGeometry x="240" y="117" width="120" height="60" as="geometry" />
        </mxCell>
        <mxCell id="A6PBOMyZKVrQ29ENLVK5-4" value="RoBERTa Base" style="rounded=1;whiteSpace=wrap;html=1;fontSize=19;fillColor=#b0e3e6;strokeColor=#0e8088;strokeWidth=2;" parent="1" vertex="1">
          <mxGeometry x="240" y="194" width="120" height="60" as="geometry" />
        </mxCell>
        <mxCell id="A6PBOMyZKVrQ29ENLVK5-5" value="RoBERTa Large" style="rounded=1;whiteSpace=wrap;html=1;fontSize=19;fillColor=#b0e3e6;strokeColor=#0e8088;strokeWidth=3;" parent="1" vertex="1">
          <mxGeometry x="240" y="270" width="120" height="60" as="geometry" />
        </mxCell>
        <mxCell id="A6PBOMyZKVrQ29ENLVK5-6" value="DeBERTa Base" style="rounded=1;whiteSpace=wrap;html=1;fontSize=19;fillColor=#b1ddf0;strokeColor=#10739e;strokeWidth=2;" parent="1" vertex="1">
          <mxGeometry x="240" y="347" width="120" height="60" as="geometry" />
        </mxCell>
        <mxCell id="A6PBOMyZKVrQ29ENLVK5-7" value="DeBERTa Large" style="rounded=1;whiteSpace=wrap;html=1;fontSize=19;fillColor=#b1ddf0;strokeColor=#10739e;strokeWidth=3;" parent="1" vertex="1">
          <mxGeometry x="240" y="424" width="120" height="60" as="geometry" />
        </mxCell>
        <mxCell id="A6PBOMyZKVrQ29ENLVK5-19" style="edgeStyle=none;html=1;noEdgeStyle=1;orthogonal=1;exitX=1.001;exitY=0.404;exitDx=0;exitDy=0;exitPerimeter=0;entryX=0;entryY=0.5;entryDx=0;entryDy=0;" parent="1" source="A6PBOMyZKVrQ29ENLVK5-1" target="A6PBOMyZKVrQ29ENLVK5-4" edge="1">
          <mxGeometry relative="1" as="geometry">
            <Array as="points">
              <mxPoint x="156" y="292.8571428571429" />
              <mxPoint x="210" y="224" />
            </Array>
            <mxPoint x="140" y="293" as="sourcePoint" />
            <mxPoint x="240" y="210" as="targetPoint" />
          </mxGeometry>
        </mxCell>
        <mxCell id="A6PBOMyZKVrQ29ENLVK5-20" style="edgeStyle=none;html=1;noEdgeStyle=1;orthogonal=1;exitX=1;exitY=0.5;exitDx=0;exitDy=0;" parent="1" source="A6PBOMyZKVrQ29ENLVK5-1" edge="1">
          <mxGeometry relative="1" as="geometry">
            <Array as="points">
              <mxPoint x="158" y="300.00000000000006" />
              <mxPoint x="228" y="300" />
            </Array>
            <mxPoint x="140" y="300" as="sourcePoint" />
            <mxPoint x="240" y="300" as="targetPoint" />
          </mxGeometry>
        </mxCell>
        <mxCell id="A6PBOMyZKVrQ29ENLVK5-21" style="edgeStyle=none;html=1;noEdgeStyle=1;orthogonal=1;exitX=0.993;exitY=0.586;exitDx=0;exitDy=0;exitPerimeter=0;entryX=0;entryY=0.5;entryDx=0;entryDy=0;" parent="1" source="A6PBOMyZKVrQ29ENLVK5-1" target="A6PBOMyZKVrQ29ENLVK5-6" edge="1">
          <mxGeometry relative="1" as="geometry">
            <Array as="points">
              <mxPoint x="156" y="307.1428571428572" />
              <mxPoint x="210" y="377" />
            </Array>
            <mxPoint x="140" y="307" as="sourcePoint" />
            <mxPoint x="240" y="390" as="targetPoint" />
          </mxGeometry>
        </mxCell>
        <mxCell id="A6PBOMyZKVrQ29ENLVK5-24" value="&lt;font style=&quot;font-size: 20px;&quot;&gt;True Labels&lt;/font&gt;" style="edgeStyle=none;html=1;noEdgeStyle=1;orthogonal=1;exitX=0.996;exitY=0.795;exitDx=0;exitDy=0;exitPerimeter=0;entryX=-0.01;entryY=0.893;entryDx=0;entryDy=0;entryPerimeter=0;fontSize=20;" parent="1" source="A6PBOMyZKVrQ29ENLVK5-1" target="6gBF9ABzdq29Ft6zYh_U-27" edge="1">
          <mxGeometry x="-0.1842" relative="1" as="geometry">
            <Array as="points">
              <mxPoint x="130" y="340" />
              <mxPoint x="191" y="510" />
              <mxPoint x="410" y="510" />
              <mxPoint x="437" y="396.92307692307674" />
            </Array>
            <mxPoint as="offset" />
            <mxPoint x="109.99999999999977" y="321.44000000000017" as="sourcePoint" />
            <mxPoint x="591" y="396.9230769230767" as="targetPoint" />
          </mxGeometry>
        </mxCell>
        <mxCell id="A6PBOMyZKVrQ29ENLVK5-25" value="" style="group;rotation=0;fillColor=#eeeeee;strokeColor=#36393d;" parent="1" vertex="1" connectable="0">
          <mxGeometry x="127" y="260" width="57" height="13" as="geometry" />
        </mxCell>
        <mxCell id="A6PBOMyZKVrQ29ENLVK5-17" value="" style="rounded=0;whiteSpace=wrap;html=1;rotation=0;" parent="A6PBOMyZKVrQ29ENLVK5-25" vertex="1">
          <mxGeometry width="57" height="13" as="geometry" />
        </mxCell>
        <mxCell id="A6PBOMyZKVrQ29ENLVK5-15" value="&lt;font style=&quot;font-size: 13px;&quot;&gt;Sentence&lt;/font&gt;" style="text;html=1;align=center;verticalAlign=middle;whiteSpace=wrap;rounded=0;fontSize=13;rotation=0;" parent="A6PBOMyZKVrQ29ENLVK5-25" vertex="1">
          <mxGeometry x="1" y="1" width="55" height="11" as="geometry" />
        </mxCell>
        <mxCell id="A6PBOMyZKVrQ29ENLVK5-30" value="" style="group;rotation=0;fillColor=#eeeeee;strokeColor=#36393d;fontSize=13;" parent="1" vertex="1" connectable="0">
          <mxGeometry x="127" y="320" width="57" height="13" as="geometry" />
        </mxCell>
        <mxCell id="A6PBOMyZKVrQ29ENLVK5-31" value="" style="rounded=0;whiteSpace=wrap;html=1;rotation=0;" parent="A6PBOMyZKVrQ29ENLVK5-30" vertex="1">
          <mxGeometry width="57" height="13" as="geometry" />
        </mxCell>
        <mxCell id="A6PBOMyZKVrQ29ENLVK5-32" value="&lt;font style=&quot;font-size: 13px;&quot;&gt;Sentence&lt;/font&gt;" style="text;html=1;align=center;verticalAlign=middle;whiteSpace=wrap;rounded=0;fontSize=13;rotation=0;" parent="A6PBOMyZKVrQ29ENLVK5-30" vertex="1">
          <mxGeometry y="2" width="56" height="9" as="geometry" />
        </mxCell>
        <mxCell id="A6PBOMyZKVrQ29ENLVK5-33" value="" style="group;rotation=0;fillColor=#eeeeee;strokeColor=#36393d;fontSize=13;" parent="1" vertex="1" connectable="0">
          <mxGeometry x="160" y="292.5" width="57" height="13" as="geometry" />
        </mxCell>
        <mxCell id="A6PBOMyZKVrQ29ENLVK5-34" value="" style="rounded=0;whiteSpace=wrap;html=1;rotation=0;" parent="A6PBOMyZKVrQ29ENLVK5-33" vertex="1">
          <mxGeometry width="57" height="13" as="geometry" />
        </mxCell>
        <mxCell id="A6PBOMyZKVrQ29ENLVK5-35" value="&lt;font style=&quot;font-size: 13px;&quot;&gt;Sentence&lt;/font&gt;" style="text;html=1;align=center;verticalAlign=middle;whiteSpace=wrap;rounded=0;fontSize=13;rotation=0;" parent="A6PBOMyZKVrQ29ENLVK5-33" vertex="1">
          <mxGeometry x="1" y="1" width="55" height="11" as="geometry" />
        </mxCell>
      </root>
    </mxGraphModel>
  </diagram>
</mxfile>
